#!OML:ASF F:\VICON\USERDATA\INSTALL\SteveWalk\SteveWalk.ASF
:FULLY-SPECIFIED
:DEGREES
277
root -0.134459 16.2567 14.1294 17.3804 0.272844 -0.8717
lowerback -15.6978 0.721575 0.889862
upperback -4.75545 0.739311 1.60854
thorax 3.73654 0.372587 1.32453
lowerneck -3.93383 0.118487 -0.230782
upperneck 8.43571 0.35134 -2.02345
head 3.41203 0.0876515 -0.606084
rclavicle -2.62147e-015 -5.1684e-015
rhumerus -17.4305 -0.302057 -84.3322
rradius 33.0887
rwrist -9.32495
rhand -16.068 -33.9739
rfingers 7.12502
rthumb 10.1346 -63.7098
lclavicle -2.62147e-015 -5.1684e-015
lhumerus -62.0057 38.4009 43.8125
lradius 9.59109
lwrist -56.5172
lhand -9.07565 -12.719
lfingers 7.12502
lthumb 16.8736 16.5679
rfemur -15.8194 -7.64403 24.1263
rtibia 29.9278
rfoot -29.6072 5.1603
rtoes -19.6013
lfemur -48.2164 4.00922 -21.9094
ltibia 37.0624
lfoot -10.7299 10.671
ltoes -7.77925
278
root -0.124185 16.2301 14.352 17.3502 -0.316522 -0.696972
lowerback -15.574 0.844052 0.583865
upperback -4.86572 0.956895 1.48579
thorax 3.54774 0.480191 1.40498
lowerneck -3.74796 0.107974 -0.196737
upperneck 8.48506 0.331432 -1.99305
head 3.39304 0.0806895 -0.602735
rclavicle 1.84062e-014 6.75868e-015
rhumerus -16.599 0.902144 -84.3422
rradius 34.0967
rwrist -10.102
rhand -16.3223 -33.1472
rfingers 7.12502
rthumb 9.88922 -62.8949
lclavicle 1.84062e-014 6.75868e-015
lhumerus -64.0715 37.7479 41.8976
lradius 9.79665
lwrist -57.0183
lhand -8.38489 -12.2985
lfingers 7.12502
lthumb 17.5385 16.9304
rfemur -14.2629 -8.16638 23.6148
rtibia 28.8514
rfoot -30.1815 4.66924
rtoes -24.1365
lfemur -48.0827 4.12057 -22.0579
ltibia 33.7085
lfoot -10.5183 10.8082
ltoes -9.09972
279
root -0.116367 16.2244 14.5682 17.483 -0.589202 -0.945282
lowerback -15.6565 0.955101 0.711809
upperback -4.88443 1.08166 1.49751
thorax 3.57167 0.54173 1.36917
lowerneck -3.73626 0.0880893 -0.225672
upperneck 8.40564 0.300284 -1.93604
head 3.36254 0.0671631 -0.579855
rclavicle -1.0107e-014 -4.37326e-015
rhumerus -15.6949 1.78103 -84.2641
rradius 35.3345
rwrist -10.5255
rhand -16.5279 -32.565
rfingers 7.12502
rthumb 9.69082 -62.3221
lclavicle -1.0107e-014 -4.37326e-015
lhumerus -65.7463 37.301 40.223
lradius 9.8887
lwrist -57.0069
lhand -7.76341 -12.4549
lfingers 7.12502
lthumb 18.1365 16.7196
rfemur -13.2074 -8.37413 23.6007
rtibia 27.8604
rfoot -29.7179 7.2168
rtoes -18.9654
lfemur -48.088 4.08357 -21.6221
ltibia 30.3343
lfoot -10.4507 10.563
ltoes -8.17647
280
root -0.107215 16.2281 14.7767 17.6586 -0.463342 -1.36529
lowerback -15.6913 1.00571 1.07292
upperback -4.92861 1.08939 1.5821
thorax 3.54829 0.545725 1.25545
lowerneck -3.78059 0.0570872 -0.290511
upperneck 8.34827 0.257189 -1.87242
head 3.35029 0.0463979 -0.549289
rclavicle 9.89886e-015 3.97569e-015
rhumerus -14.7475 2.63177 -84.0842
rradius 36.5339
rwrist -11.0726
rhand -16.2386 -33.4549
rfingers 7.12502
rthumb 9.96996 -63.1988
lclavicle 9.89886e-015 3.97569e-015
lhumerus -67.3042 36.8135 38.6946
lradius 10.0073
lwrist -57.0552
lhand -7.13277 -12.5143
lfingers 7.12502
lthumb 18.7431 16.6027
rfemur -12.2914 -8.35174 23.8661
rtibia 26.9841
rfoot -28.5339 10.4327
rtoes -8.69873
lfemur -48.1633 4.01827 -21.0701
ltibia 27.0347
lfoot -9.90699 10.1802
ltoes -8.83458
281
root -0.0922575 16.2197 14.9878 17.9291 -0.632602 -1.8146
lowerback -15.7231 1.1735 1.48129
upperback -5.0727 1.24784 1.62852
thorax 3.41817 0.623636 1.10114
lowerneck -3.85922 0.0433122 -0.375101
upperneck 8.39361 0.233722 -1.72518
head 3.38007 0.0371128 -0.487739
rclavicle -7.56624e-015 5.96354e-015
rhumerus -13.8175 3.40924 -83.8805
rradius 37.467
rwrist -11.687
rhand -16.1897 -33.6683
rfingers 7.12502
rthumb 10.0172 -63.4099
lclavicle -7.56624e-015 5.96354e-015
lhumerus -67.1409 35.1514 40.1674
lradius 10.2387
lwrist -54.5898
lhand -7.73948 -13.0601
lfingers 7.12502
lthumb 18.1595 16.1122
rfemur -11.4437 -8.46151 24.089
rtibia 26.1406
rfoot -27.9355 12.0566
rtoes -4.70264
lfemur -48.3262 4.27798 -20.6474
ltibia 23.8852
lfoot -9.60959 9.54192
ltoes -8.96602
282
root -0.0809321 16.2072 15.2052 18.6495 -2.05943 -2.59936
lowerback -16.3607 1.79886 1.99602
upperback -5.21637 1.97011 1.66713
thorax 3.61424 0.979292 1.00221
lowerneck -3.77624 0.0659797 -0.398239
upperneck 8.21755 0.2518 -1.6032
head 3.30277 0.0516685 -0.442248
rclavicle -2.80069e-014 -6.75868e-015
rhumerus -12.839 3.98777 -83.6665
rradius 38.3698
rwrist -11.9639
rhand -16.044 -33.0548
rfingers 7.12502
rthumb 10.1577 -62.7895
lclavicle -2.80069e-014 -6.75868e-015
lhumerus -67.1321 33.7265 41.2669
lradius 10.3695
lwrist -52.3001
lhand -7.68913 -12.9331
lfingers 7.12502
lthumb 18.2079 16.2347
rfemur -11.1215 -8.1492 24.331
rtibia 25.343
rfoot -27.806 13.5083
rtoes -5.01721
lfemur -48.7653 5.14869 -19.7516
ltibia 20.9081
lfoot -10.0899 9.07046
ltoes -3.73309
283
root -0.0685602 16.1911 15.4414 18.6797 -2.67226 -2.55345
lowerback -16.5765 1.93652 1.77327
upperback -5.20471 2.18191 1.5944
thorax 3.73584 1.08373 1.10003
lowerneck -3.34596 0.0988191 -0.364285
upperneck 7.85128 0.285424 -1.62509
head 3.0951 0.0729467 -0.451838
rclavicle -1.06008e-014 -4.77083e-015
rhumerus -12.0514 4.61157 -83.4543
rradius 39.3497
rwrist -11.9714
rhand -15.904 -32.999
rfingers 7.12502
rthumb 10.2928 -62.7272
lclavicle -1.06008e-014 -4.77083e-015
lhumerus -67.0851 31.9428 42.925
lradius 10.5976
lwrist -49.4087
lhand -7.70256 -12.6627
lfingers 7.12502
lthumb 18.195 16.5063
rfemur -9.80304 -8.04806 23.8386
rtibia 24.5553
rfoot -27.8034 14.1043
rtoes -5.79731
lfemur -48.4914 5.32946 -19.6266
ltibia 18.2196
lfoot -10.4874 8.02113
ltoes 1.7718
